<mxfile host="app.diagrams.net" modified="2022-05-06T09:46:25.346Z" agent="5.0 (Windows NT 10.0; Win64; x64) AppleWebKit/537.36 (KHTML, like Gecko) Chrome/100.0.4896.127 Safari/537.36" etag="eK89fG-GZGuqvTKHNn3B" version="18.0.1" type="github">
  <diagram id="C5RBs43oDa-KdzZeNtuy" name="Page-1">
    <mxGraphModel dx="2031" dy="1143" grid="1" gridSize="10" guides="1" tooltips="1" connect="1" arrows="1" fold="1" page="1" pageScale="1" pageWidth="827" pageHeight="1169" math="0" shadow="0">
      <root>
        <mxCell id="WIyWlLk6GJQsqaUBKTNV-0" />
        <mxCell id="WIyWlLk6GJQsqaUBKTNV-1" parent="WIyWlLk6GJQsqaUBKTNV-0" />
        <mxCell id="xwTJy5zBZSmg-VqiHeOG-0" value="&lt;font style=&quot;font-size: 24px;&quot;&gt;&lt;b&gt;Interaction Class Diagram&lt;/b&gt;&lt;/font&gt;" style="text;html=1;strokeColor=none;fillColor=none;align=center;verticalAlign=middle;whiteSpace=wrap;rounded=0;" vertex="1" parent="WIyWlLk6GJQsqaUBKTNV-1">
          <mxGeometry x="40" y="40" width="320" height="30" as="geometry" />
        </mxCell>
        <mxCell id="xwTJy5zBZSmg-VqiHeOG-1" value="Interactor" style="swimlane;fontStyle=1;align=center;verticalAlign=top;childLayout=stackLayout;horizontal=1;startSize=40;horizontalStack=0;resizeParent=1;resizeParentMax=0;resizeLast=0;collapsible=1;marginBottom=0;fontSize=24;" vertex="1" parent="WIyWlLk6GJQsqaUBKTNV-1">
          <mxGeometry x="40" y="120" width="560" height="370" as="geometry" />
        </mxCell>
        <mxCell id="xwTJy5zBZSmg-VqiHeOG-2" value="- interactionRange: Float&#xa;# canInteract: bool&#xa;# interactable: Interactable" style="text;strokeColor=none;fillColor=none;align=left;verticalAlign=top;spacingLeft=4;spacingRight=4;overflow=hidden;rotatable=0;points=[[0,0.5],[1,0.5]];portConstraint=eastwest;fontSize=24;" vertex="1" parent="xwTJy5zBZSmg-VqiHeOG-1">
          <mxGeometry y="40" width="560" height="280" as="geometry" />
        </mxCell>
        <mxCell id="xwTJy5zBZSmg-VqiHeOG-3" value="" style="line;strokeWidth=1;fillColor=none;align=left;verticalAlign=middle;spacingTop=-1;spacingLeft=3;spacingRight=3;rotatable=0;labelPosition=right;points=[];portConstraint=eastwest;fontSize=24;" vertex="1" parent="xwTJy5zBZSmg-VqiHeOG-1">
          <mxGeometry y="320" width="560" height="8" as="geometry" />
        </mxCell>
        <mxCell id="xwTJy5zBZSmg-VqiHeOG-4" value="+ CheckInteraction(out Interactable object): bool" style="text;strokeColor=none;fillColor=none;align=left;verticalAlign=top;spacingLeft=4;spacingRight=4;overflow=hidden;rotatable=0;points=[[0,0.5],[1,0.5]];portConstraint=eastwest;fontSize=24;" vertex="1" parent="xwTJy5zBZSmg-VqiHeOG-1">
          <mxGeometry y="328" width="560" height="42" as="geometry" />
        </mxCell>
        <mxCell id="xwTJy5zBZSmg-VqiHeOG-5" value="Interactable" style="swimlane;fontStyle=1;align=center;verticalAlign=top;childLayout=stackLayout;horizontal=1;startSize=40;horizontalStack=0;resizeParent=1;resizeParentMax=0;resizeLast=0;collapsible=1;marginBottom=0;fontSize=24;" vertex="1" parent="WIyWlLk6GJQsqaUBKTNV-1">
          <mxGeometry x="880" y="120" width="430" height="160" as="geometry" />
        </mxCell>
        <mxCell id="xwTJy5zBZSmg-VqiHeOG-6" value="+ interactMessage: string" style="text;strokeColor=none;fillColor=none;align=left;verticalAlign=top;spacingLeft=4;spacingRight=4;overflow=hidden;rotatable=0;points=[[0,0.5],[1,0.5]];portConstraint=eastwest;fontSize=24;" vertex="1" parent="xwTJy5zBZSmg-VqiHeOG-5">
          <mxGeometry y="40" width="430" height="40" as="geometry" />
        </mxCell>
        <mxCell id="xwTJy5zBZSmg-VqiHeOG-7" value="" style="line;strokeWidth=1;fillColor=none;align=left;verticalAlign=middle;spacingTop=-1;spacingLeft=3;spacingRight=3;rotatable=0;labelPosition=right;points=[];portConstraint=eastwest;fontSize=24;" vertex="1" parent="xwTJy5zBZSmg-VqiHeOG-5">
          <mxGeometry y="80" width="430" height="8" as="geometry" />
        </mxCell>
        <mxCell id="xwTJy5zBZSmg-VqiHeOG-8" value="+ Interact(Interactor): void&#xa;+ InteractCancel(Interactor): void" style="text;strokeColor=none;fillColor=none;align=left;verticalAlign=top;spacingLeft=4;spacingRight=4;overflow=hidden;rotatable=0;points=[[0,0.5],[1,0.5]];portConstraint=eastwest;fontSize=24;" vertex="1" parent="xwTJy5zBZSmg-VqiHeOG-5">
          <mxGeometry y="88" width="430" height="72" as="geometry" />
        </mxCell>
        <mxCell id="xwTJy5zBZSmg-VqiHeOG-10" value="Player" style="swimlane;fontStyle=1;align=center;verticalAlign=top;childLayout=stackLayout;horizontal=1;startSize=40;horizontalStack=0;resizeParent=1;resizeParentMax=0;resizeLast=0;collapsible=1;marginBottom=0;fontSize=24;" vertex="1" parent="WIyWlLk6GJQsqaUBKTNV-1">
          <mxGeometry x="40" y="560" width="560" height="268" as="geometry" />
        </mxCell>
        <mxCell id="xwTJy5zBZSmg-VqiHeOG-11" value="+ field: type" style="text;strokeColor=none;fillColor=none;align=left;verticalAlign=top;spacingLeft=4;spacingRight=4;overflow=hidden;rotatable=0;points=[[0,0.5],[1,0.5]];portConstraint=eastwest;fontSize=24;" vertex="1" parent="xwTJy5zBZSmg-VqiHeOG-10">
          <mxGeometry y="40" width="560" height="40" as="geometry" />
        </mxCell>
        <mxCell id="xwTJy5zBZSmg-VqiHeOG-12" value="" style="line;strokeWidth=1;fillColor=none;align=left;verticalAlign=middle;spacingTop=-1;spacingLeft=3;spacingRight=3;rotatable=0;labelPosition=right;points=[];portConstraint=eastwest;fontSize=24;" vertex="1" parent="xwTJy5zBZSmg-VqiHeOG-10">
          <mxGeometry y="80" width="560" height="8" as="geometry" />
        </mxCell>
        <mxCell id="xwTJy5zBZSmg-VqiHeOG-13" value="+ method(type): type" style="text;strokeColor=none;fillColor=none;align=left;verticalAlign=top;spacingLeft=4;spacingRight=4;overflow=hidden;rotatable=0;points=[[0,0.5],[1,0.5]];portConstraint=eastwest;fontSize=24;" vertex="1" parent="xwTJy5zBZSmg-VqiHeOG-10">
          <mxGeometry y="88" width="560" height="180" as="geometry" />
        </mxCell>
        <mxCell id="xwTJy5zBZSmg-VqiHeOG-14" value="" style="endArrow=none;html=1;rounded=0;fontSize=24;entryX=0.005;entryY=1.034;entryDx=0;entryDy=0;entryPerimeter=0;" edge="1" parent="WIyWlLk6GJQsqaUBKTNV-1" target="xwTJy5zBZSmg-VqiHeOG-6">
          <mxGeometry width="50" height="50" relative="1" as="geometry">
            <mxPoint x="600" y="201" as="sourcePoint" />
            <mxPoint x="320" y="490" as="targetPoint" />
          </mxGeometry>
        </mxCell>
        <mxCell id="xwTJy5zBZSmg-VqiHeOG-15" value="Extends" style="endArrow=block;endSize=16;endFill=0;html=1;rounded=0;fontSize=24;exitX=0.5;exitY=0;exitDx=0;exitDy=0;" edge="1" parent="WIyWlLk6GJQsqaUBKTNV-1" source="xwTJy5zBZSmg-VqiHeOG-10">
          <mxGeometry x="-0.1214" y="-59" width="160" relative="1" as="geometry">
            <mxPoint x="680" y="410" as="sourcePoint" />
            <mxPoint x="320" y="490" as="targetPoint" />
            <mxPoint as="offset" />
          </mxGeometry>
        </mxCell>
      </root>
    </mxGraphModel>
  </diagram>
</mxfile>
